<svg xmlns="http://www.w3.org/2000/svg" viewBox="0 0 52 50"> <g transform="matrix(0.03125,0,0,0.03125,10,9)"> <path d="M 512,192 C 288.682,192 95.118,322.042 0,512 95.118,701.958 288.682,832 512,832 735.312,832 928.876,701.958 1024,512 928.884,322.042 735.312,192 512,192 Z M 764.45,361.704 C 824.612,400.078 875.592,451.478 913.884,512 875.592,572.522 824.61,623.922 764.448,662.296 688.854,710.514 601.558,736 512,736 422.44,736 335.142,710.514 259.548,662.296 199.39,623.924 148.41,572.524 110.116,512 148.408,451.476 199.39,400.076 259.55,361.704 c 3.918,-2.5 7.876,-4.922 11.86,-7.3 C 261.45,381.732 256,411.226 256,442 c 0,141.382 114.616,256 256,256 141.382,0 256,-114.618 256,-256 0,-30.774 -5.452,-60.268 -15.408,-87.598 3.978,2.378 7.938,4.802 11.858,7.302 z M 512,416 c 0,53.02 -42.98,96 -96,96 -53.02,0 -96,-42.98 -96,-96 0,-53.02 42.98,-96 96,-96 53.02,0 96,42.982 96,96 z" /> </g> </svg>
