<?xml version="1.0" encoding="UTF-8"?>
<svg width="100px" height="102px" viewBox="0 0 100 102" version="1.1" xmlns="http://www.w3.org/2000/svg" xmlns:xlink="http://www.w3.org/1999/xlink">
    <title>Group 12</title>
    <defs>
        <filter x="-45.0%" y="-44.3%" width="190.0%" height="190.2%" filterUnits="objectBoundingBox" id="filter-1">
            <feOffset dx="0" dy="2" in="SourceAlpha" result="shadowOffsetOuter1"></feOffset>
            <feGaussianBlur stdDeviation="6" in="shadowOffsetOuter1" result="shadowBlurOuter1"></feGaussianBlur>
            <feColorMatrix values="0 0 0 0 0   0 0 0 0 0   0 0 0 0 0  0 0 0 0.1 0" type="matrix" in="shadowBlurOuter1" result="shadowMatrixOuter1"></feColorMatrix>
            <feMerge>
                <feMergeNode in="shadowMatrixOuter1"></feMergeNode>
                <feMergeNode in="SourceGraphic"></feMergeNode>
            </feMerge>
        </filter>
        <path d="M0.182970297,30.1256275 C0.182970297,46.5711078 13.5493069,60.0269902 29.8865347,60.0269902 L29.8865347,60.0269902 C46.2231683,60.0269902 59.589505,46.5711078 59.589505,30.1256275 L59.589505,30.1256275 C59.589505,13.679549 46.2231683,0.223666667 29.8865347,0.223666667 L29.8865347,0.223666667 C13.5493069,0.223666667 0.182970297,13.679549 0.182970297,30.1256275 L0.182970297,30.1256275 Z" id="path-2"></path>
        <path d="M29.8865347,60.0269902 C46.2231683,60.0269902 59.589505,46.5711078 59.589505,30.1256275 C59.589505,13.679549 46.2231683,0.223666667 29.8865347,0.223666667 C13.5493069,0.223666667 0.182970297,13.679549 0.182970297,30.1256275 C0.182970297,46.5711078 13.5493069,60.0269902 29.8865347,60.0269902 Z" id="path-4"></path>
    </defs>
    <g id="Wandrer" stroke="none" stroke-width="1" fill="none" fill-rule="evenodd">
        <g id="Dashboard_Landing_Achievements_VD" transform="translate(-21.000000, -467.000000)">
            <g id="Group-12" filter="url(#filter-1)" transform="translate(41.000000, 487.000000)">
                <path d="M29.8866535,60.0411039 L29.8866535,60.0411039 C13.5500198,60.0411039 0.183683168,46.5852216 0.183683168,30.1391431 C0.183683168,13.6930647 13.5500198,0.237182353 29.8866535,0.237182353 L29.8866535,0.237182353 C46.2232871,0.237182353 59.5896238,13.6930647 59.5896238,30.1391431 C59.5896238,46.5852216 46.2232871,60.0411039 29.8866535,60.0411039" id="Fill-1" fill="#FFFFFF"></path>
                <g id="Group-9" transform="translate(0.000000, 0.013755)">
                    <g id="Group-5">
                        <mask id="mask-3" fill="white">
                            <use xlink:href="#path-2"></use>
                        </mask>
                        <g id="Clip-4"></g>
                        <path d="M-18.3070099,-34.559849 C-9.17215842,-29.8263686 -0.0373069307,-25.0928882 9.09754455,-20.3600059 C12.1337822,-18.7871627 15.2484356,-17.1527216 17.4809109,-14.551849 C19.7133861,-11.9515745 20.881901,-8.11993725 19.4413069,-5.0035549 C18.5246733,-3.01866275 16.7294257,-1.62224118 15.122495,-0.146878431 C8.4149703,6.01113137 4.12942574,15.7412294 6.91734653,24.4379157 C10.0854653,34.3175235 20.8432871,39.6299059 26.0258614,48.6052784 C27.6898218,51.4878275 28.7555644,54.9462882 27.8840792,58.1625431 C26.6555644,62.7010627 21.7979406,65.4921118 17.1292277,65.694249 C12.4611089,65.8963863 7.96051485,64.047249 3.74922772,62.0103275 C-4.38463366,58.0758275 -12.1192871,53.3052686 -19.2955248,47.7967294 C-32.0850297,37.9781216 -43.3911683,25.2602196 -47.9642376,9.73631765 C-52.537901,-5.78758431 -49.0994851,-24.3692608 -36.7139406,-34.6997902 L-18.3070099,-34.559849 Z" id="Fill-3" fill="#53C4ED" mask="url(#mask-3)"></path>
                    </g>
                    <g id="Group-8">
                        <mask id="mask-5" fill="white">
                            <use xlink:href="#path-4"></use>
                        </mask>
                        <g id="Clip-7"></g>
                        <path d="M72.6783564,68.7023863 C70.0668713,71.2697686 64.1672673,69.4379745 56.6470693,67.6139549 C49.0852871,65.6876706 39.9023168,63.7685627 29.7658812,63.8146118 C19.6294455,63.7685627 10.4464752,65.6876706 2.88469307,67.6139549 C-4.63609901,69.4379745 -10.535703,71.2691706 -13.1471881,68.7023863 C-15.5667921,66.4597392 -14.116099,59.1714353 -6.62916832,51.8992784 C0.62370297,44.7234059 13.9116238,37.5642784 29.7658812,37.8017 C45.6195446,37.5642784 58.9080594,44.7234059 66.1603366,51.8992784 C73.6472673,59.1714353 75.0979604,66.4597392 72.6783564,68.7023863" id="Fill-6" fill="#F5AF24" mask="url(#mask-5)"></path>
                    </g>
                </g>
                <path d="M26.563604,27.5288216 L28.073703,23.5751843 L24.7511287,21.1429588 L28.6475644,21.1429588 L29.8861782,17.1893216 L31.1253861,21.1429588 L35.0218218,21.1429588 L31.6992475,23.5751843 L33.2093465,27.5288216 L29.8861782,25.095998 L26.563604,27.5288216 Z M25.6059802,36.4007333 C25.5822178,36.3116255 25.5608317,36.2201255 25.5388515,36.1262333 C19.2394455,31.6977529 15.0988515,24.3502431 15.0988515,16.0733804 L22.3778614,16.0733804 C22.9754851,21.6782039 24.0661782,30.1697627 25.6077624,36.4007333 L25.6059802,36.4007333 Z M44.673505,16.0733804 C44.673505,24.3430667 40.5376634,31.6863902 34.2483564,36.1142725 C34.2471683,36.1190569 34.2459802,36.1250373 34.2447921,36.1298216 L34.2447921,36.1304196 C34.2412277,36.1304196 34.2370693,36.1286255 34.2317228,36.1262333 C34.2376634,36.1226451 34.2430099,36.1184588 34.2483564,36.1142725 C35.764396,29.9742039 36.8194455,21.6004588 37.3950891,16.0733804 L44.673505,16.0733804 Z M30.9673663,44.3157824 C31.8507327,43.4773314 32.6574653,41.6598902 33.3845941,39.2790961 C43.1301386,33.7161353 46.8786535,24.8167137 46.8786535,13.8516647 L37.6255842,13.8516647 L37.624396,13.8516647 C37.7295446,12.8104784 37.8079604,11.9445176 37.8626139,11.3111941 L21.9091485,11.3111941 C21.9632079,11.9445176 22.0434059,12.8122725 22.1467723,13.8516647 L12.894297,13.8516647 C12.894297,24.8167137 16.644,33.7161353 26.3883564,39.2790961 C27.1154851,41.6622824 27.9222178,43.4791255 28.8055842,44.3157824 L19.5566733,44.3157824 L15.5954851,49.5067627 L44.1774653,49.5067627 L40.2180594,44.3157824 L30.9673663,44.3157824 Z" id="Fill-10" fill="#E72B6A" style="mix-blend-mode: multiply;"></path>
            </g>
        </g>
    </g>
</svg>