<svg xmlns="http://www.w3.org/2000/svg" viewBox="0 0 52 50"> <g transform="matrix(0.03125,0,0,0.03125,10,10)"> <path d="m 945.942,14.058 c -18.746,-18.744 -49.136,-18.744 -67.882,0 L 675.896,216.222 C 623.958,200.468 568.948,192 512,192 288.682,192 95.118,322.042 0,512 41.122,594.124 100.648,665.04 173.022,719.096 L 14.06,878.058 c -18.746,18.746 -18.746,49.136 0,67.882 9.372,9.374 21.656,14.06 33.94,14.06 12.284,0 24.568,-4.686 33.942,-14.058 l 864,-864 c 18.744,-18.746 18.744,-49.138 0,-67.884 z M 416,320 c 42.24,0 78.082,27.294 90.92,65.196 L 385.196,506.92 C 347.294,494.082 320,458.24 320,416 c 0,-53.02 42.98,-96 96,-96 z M 110.116,512 c 38.292,-60.524 89.274,-111.924 149.434,-150.296 3.918,-2.5 7.876,-4.922 11.862,-7.3 C 261.45,381.732 256,411.226 256,442 c 0,54.89 17.286,105.738 46.7,147.418 l -60.924,60.924 C 189.33,613.5 144.574,566.46 110.116,512 Z" /> <path d="m 768,442 c 0,-27.166 -4.256,-53.334 -12.102,-77.898 L 434.09,685.91 C 458.658,693.752 484.832,698 512,698 653.382,698 768,583.382 768,442 Z" /> <path d="m 830.026,289.974 -69.362,69.362 c 1.264,0.786 2.53,1.568 3.786,2.368 C 824.612,400.078 875.592,451.478 913.884,512 875.592,572.522 824.61,623.922 764.448,662.296 688.854,710.514 601.558,736 512,736 c -38.664,0 -76.902,-4.76 -113.962,-14.04 l -76.894,76.894 C 380.862,820.316 445.094,832 512,832 735.31,832 928.876,701.958 1024,512 978.978,422.084 911.882,345.604 830.026,289.974 Z" /> </g> </svg>
