<?xml version="1.0" encoding="UTF-8"?>
<svg width="12px" height="14px" viewBox="0 0 12 14" version="1.1" xmlns="http://www.w3.org/2000/svg" xmlns:xlink="http://www.w3.org/1999/xlink">
    <title>Group 3</title>
    <g id="Symbols" stroke="none" stroke-width="1" fill="none" fill-rule="evenodd">
        <g id="Group-7" fill="#4A4A4A" transform="translate(0.500000, 0.250000)">
            <g id="Group-3" transform="translate(0.000000, 0.171568)">
                <g id="Group" transform="translate(0.000116, 0.132275)">
                    <path d="M4.18028947,0.867914474 C3.33213158,0.867914474 2.48397368,1.19067763 1.83844737,1.83649342 C1.21289474,2.46204605 0.868421053,3.29370395 0.868421053,4.178625 C0.868421053,5.06296711 1.21289474,5.894625 1.83844737,6.52017763 C3.1295,7.81123026 5.23078947,7.81180921 6.52213158,6.52017763 C7.81347368,5.22883553 7.81347368,3.12783553 6.52213158,1.83649342 C5.87631579,1.19067763 5.02844737,0.867914474 4.18028947,0.867914474 M4.18028947,8.35659868 C3.10981579,8.35659868 2.03934211,7.94930921 1.22447368,7.13415132 C0.434789474,6.34475658 -1.43973722e-12,5.295125 -1.43973722e-12,4.178625 C-1.43973722e-12,3.06154605 0.434789474,2.01191447 1.22447368,1.22251974 C2.85421053,-0.407506579 5.50636842,-0.407506579 7.13610526,1.22251974 C8.76613158,2.85225658 8.76613158,5.50441447 7.13610526,7.13415132 C6.32123684,7.94930921 5.25076316,8.35659868 4.18028947,8.35659868" id="Fill-1"></path>
                    <path d="M10.1283658,10.7405592 L7.67218158,8.284375 C7.50255,8.11474342 7.50255,7.83974342 7.67218158,7.67040132 C7.84181316,7.50076974 8.11652368,7.50076974 8.28615526,7.67040132 L10.7423395,10.1265855 C10.9119711,10.2962171 10.9119711,10.5709276 10.7423395,10.7405592 C10.5727079,10.9101908 10.2979974,10.9101908 10.1283658,10.7405592" id="Fill-4"></path>
                </g>
            </g>
        </g>
    </g>
</svg>